<svg width="14" height="22" viewBox="0 0 14 22" fill="none" xmlns="http://www.w3.org/2000/svg">
<path d="M11 10L7 14L3 10L4.4 8.6L6 10.15V6H8V10.15L9.6 8.6L11 10ZM5 19H9V18H5V19ZM2 22C1.45 22 0.979333 21.8043 0.588 21.413C0.196666 21.0217 0.000666667 20.5507 0 20V2C0 1.45 0.196 0.979333 0.588 0.588C0.98 0.196667 1.45067 0.000666667 2 0H12C12.55 0 13.021 0.196 13.413 0.588C13.805 0.98 14.0007 1.45067 14 2V20C14 20.55 13.8043 21.021 13.413 21.413C13.0217 21.805 12.5507 22.0007 12 22H2ZM2 17V20H12V17H2ZM2 15H12V5H2V15ZM2 3H12V2H2V3Z" fill="#D2D9E1"/>
</svg>
